<svg version="1" xmlns="http://www.w3.org/2000/svg" width="666.667" height="666.667" viewBox="0 0 500.000000 500.000000"><path d="M0 250v250h500V0H0v250zM295.1 86.6c10.6 1.7 23.7 4.9 28.6 6.9l3.3 1.4v16c0 8.9-.2 16.1-.5 16.1s-3.6-1.5-7.3-3.4c-8.1-4.1-19.9-7.9-31.8-10.3-13.6-2.7-41-2.5-52.6.4-14.9 3.8-29.3 12-36.1 20.7-9.4 12-12.7 28.3-9.3 44.8 2.2 10 6.2 17.3 14.1 25.4 8.7 8.9 20.1 16.3 51 33.4 53.9 29.6 73.4 47.1 82.2 73.5 2.5 7.3 2.7 9.3 2.7 24 0 18.3-1.1 24-7.4 37-13 26.8-40.9 43.2-80.9 47.5-26.6 3-66-3-88.4-13.2l-6.7-3.1v-17.4c0-13.7.3-17.3 1.3-16.7.6.4 2.6 1.8 4.2 3 1.7 1.2 6.7 4.1 11.2 6.3 23.7 11.9 46.8 16.6 73.9 14.9 41-2.5 62.1-21.1 62.3-54.8.1-15.1-3.4-25.4-12.1-35.8-8.8-10.5-21.1-18.8-64.8-43.5-32.3-18.2-47.9-29.5-58.3-42.1-13.4-16.3-18.9-37.9-15.4-60.6 2.3-15.5 8.3-27.8 19-39.6 17-18.5 40.3-29 73.7-32.8 6.8-.8 34.8.5 44.1 2z"/></svg>